<?xml version="1.0" encoding="UTF-8" standalone="no"?>
<svg version="1.1" xmlns="http://www.w3.org/2000/svg" width="216px" height="216px">
<g transform="translate(44 44)">
<path fill="#fff" opacity=".05" d="M64.574,84.201c3.285-7.499,6.186-15.951,9.044-24.289c0.108-0.317,0.218-0.632,0.325-0.948    C73.172,38.797,67.225,11.643,64.472,0c-2.859,11.229-8.851,37.139-9.346,58.732c0.135,0.393,0.27,0.786,0.405,1.181    C58.39,68.25,61.289,76.702,64.574,84.201z"/>
<path fill="#fff" opacity=".05" d="M71.163,96.711c0.233,0.355,0.469,0.71,0.708,1.055c0.254-0.213,0.51-0.422,0.76-0.639    c0.605-0.521,1.196-1.061,1.78-1.604c6.869-6.41,12.409-14.357,17.679-22.438c1.206-6.69,1.79-13.719,2.354-20.578    c1.221-14.815,2.381-28.907,9.82-36.842c-12.836,2.328-19.953,22.301-27.31,43.741c-0.168,0.492-0.337,0.983-0.506,1.477    c-0.308,0.896-0.616,1.795-0.925,2.692c-0.521,1.518-1.047,3.037-1.576,4.55c-2.402,6.865-4.908,13.607-7.725,19.682    C67.77,91.038,69.404,94.038,71.163,96.711z"/>
<path fill="#fff" opacity=".05" d="M36.817,71.648c5.64,7.839,11.292,15.383,17.666,21.884c0.583,0.596,1.172,1.182,1.769,1.759    c0.542,0.525,1.092,1.042,1.646,1.553c0.048,0.043,0.096,0.09,0.144,0.133c0.324,0.297,0.651,0.588,0.979,0.879    c0.374,0.332,0.746,0.664,1.125,0.988c1.571,1.34,3.197,2.606,4.875,3.805c1.565-0.937,3.071-1.943,4.516-3.026    c-1.771-2.534-3.416-5.365-4.963-8.411c-0.278-0.549-0.554-1.105-0.826-1.669c-0.277-0.572-0.551-1.149-0.822-1.735    c-2.799-6.037-5.291-12.735-7.681-19.559c-0.548-1.564-1.091-3.139-1.632-4.709c-0.305-0.886-0.608-1.771-0.912-2.656    c-0.193-0.562-0.386-1.125-0.579-1.687c-7.33-21.36-14.444-41.21-27.235-43.531c7.439,7.935,8.599,22.027,9.818,36.844    C35.229,58.879,35.778,65.391,36.817,71.648z"/>
<path fill="#fff" opacity=".05" d="M111.477,50.408c-5.098,6.037-9.651,13.107-14.057,19.945c-0.826,1.281-1.654,2.566-2.488,3.85    c-0.74,1.14-1.484,2.275-2.238,3.406c-0.816,1.229-1.644,2.449-2.482,3.658c-4.843,6.987-10.113,13.599-16.527,18.935    c-0.072,0.061-0.144,0.123-0.216,0.184c-0.31,0.255-0.626,0.503-0.94,0.752c-0.299,0.237-0.598,0.478-0.903,0.709    c-0.09,0.068-0.185,0.134-0.274,0.201c-0.543,0.407-1.094,0.806-1.652,1.193c-0.631,0.437-1.271,0.858-1.924,1.271    c0.438,0.279,0.883,0.552,1.328,0.82c0.44,0.267,0.89,0.524,1.338,0.782c0.433,0.244,0.86,0.492,1.3,0.729    c0.403,0.217,0.813,0.424,1.224,0.633c0.541,0.273,1.088,0.541,1.641,0.801c0.201,0.095,0.401,0.188,0.604,0.281    c0.334,0.152,0.669,0.305,1.008,0.45c0.482,0.21,0.968,0.413,1.458,0.609c0.835,0.336,1.682,0.657,2.544,0.959    c3.563,1.239,7.38,2.169,11.478,2.758c3.023-4.089,5.587-8.627,7.805-12.944c6.256-12.178,9.333-20.768,13.989-33.771    c1.01-2.818,2.093-5.84,3.297-9.147c3.595-9.878,7.862-16.655,11.218-20.951C123.389,39.208,117.193,43.637,111.477,50.408z"/>
<path fill="#fff" opacity=".05" d="M74.876,111.648c-0.646-0.285-1.288-0.576-1.919-0.881c-0.193-0.093-0.381-0.193-0.573-0.289    c-0.409-0.203-0.819-0.406-1.223-0.617c-0.153-0.079-0.306-0.158-0.458-0.239c-0.251-0.133-0.496-0.274-0.745-0.412    c-0.178-0.098-0.354-0.194-0.53-0.293c-0.037-0.021-0.076-0.043-0.113-0.063c-0.4-0.227-0.799-0.459-1.192-0.691    c-1.07-0.637-2.124-1.297-3.151-1.988c-0.466-0.312-0.923-0.636-1.38-0.959c-0.467-0.331-0.929-0.665-1.387-1.006    c-1.077-0.802-2.135-1.627-3.167-2.482c-0.198-0.164-0.392-0.336-0.589-0.502c-0.378-0.319-0.759-0.638-1.132-0.965    c-0.049-0.044-0.097-0.089-0.146-0.132c-0.327-0.288-0.648-0.582-0.97-0.874c-0.288-0.262-0.576-0.521-0.861-0.788    c-6.312-5.886-11.834-12.706-17.07-19.759c-0.752-1.014-1.499-2.03-2.24-3.051c-0.685-0.94-1.366-1.885-2.044-2.828    c-0.838-1.166-1.672-2.332-2.504-3.497c-3.73-5.219-7.587-10.615-11.6-15.669C13.534,45.668,5.389,41.415,0,39.313    c3.627,4.135,8.778,11.346,13.105,22.515l1.609,4.163c5.89,15.254,10.541,27.302,17.599,38.681    c4.532,7.307,11.857,15.44,20.447,19.913c2.577,1.342,5.268,2.353,8.031,2.914c1.594,0.323,3.21,0.502,4.845,0.502    c12.866,0,21.077-8.114,24.214-11.91c-0.098-0.017-0.191-0.037-0.289-0.053C84.23,115.128,79.364,113.626,74.876,111.648z"/>
</g>
</svg>
